solid csg.js
facet normal 0 0 -1
outer loop
vertex 0.7660444431189778 0.6427876096865396 0
vertex 0.8660254037844395 0.49999999999999856 0
vertex 0.9396926207859088 0.3420201433256679 0
endloop
endfacet
facet normal 0 0 -1
outer loop
vertex 0.7660444431189778 0.6427876096865396 0
vertex 0.9396926207859088 0.3420201433256679 0
vertex 0.9848077530122079 0.17364817766693177 0
endloop
endfacet
facet normal 0 0 -1
outer loop
vertex 0.7660444431189778 0.6427876096865396 0
vertex 0.9848077530122079 0.17364817766693177 0
vertex 1 -4.996003610813204e-16 0
endloop
endfacet
facet normal 0 0 -1
outer loop
vertex 0.7660444431189778 0.6427876096865396 0
vertex 1 -4.996003610813204e-16 0
vertex 0 0 0
endloop
endfacet
facet normal 0 0 -1
outer loop
vertex 0.7660444431189778 0.6427876096865396 0
vertex 0 0 0
vertex 0.6427876096865393 0.7660444431189781 0
endloop
endfacet
facet normal 0 0 1
outer loop
vertex 0.9848077530122079 0.17364817766693152 1
vertex 0.9396926207859088 0.3420201433256679 1
vertex 0.8660254037844395 0.4999999999999984 1
endloop
endfacet
facet normal 0 0 1
outer loop
vertex 0.9848077530122079 0.17364817766693152 1
vertex 0.8660254037844395 0.4999999999999984 1
vertex 0.7660444431189778 0.6427876096865395 1
endloop
endfacet
facet normal 0 0 1
outer loop
vertex 0.9848077530122079 0.17364817766693152 1
vertex 0.7660444431189778 0.6427876096865395 1
vertex 0.642787609686539 0.766044443118978 1
endloop
endfacet
facet normal 0 0 1
outer loop
vertex 0.9848077530122079 0.17364817766693152 1
vertex 0.642787609686539 0.766044443118978 1
vertex -2.220446049250313e-16 0 1
endloop
endfacet
facet normal 0 0 1
outer loop
vertex 0.9848077530122079 0.17364817766693152 1
vertex -2.220446049250313e-16 0 1
vertex 1 -4.440892098500626e-16 1
endloop
endfacet
facet normal -0.7660444431189782 0.6427876096865391 0
outer loop
vertex 0 0 1
vertex 0.6427876096865391 0.7660444431189782 1
vertex 0.6427876096865391 0.7660444431189782 0
endloop
endfacet
facet normal -0.7660444431189782 0.6427876096865391 0
outer loop
vertex 0 0 1
vertex 0.6427876096865391 0.7660444431189782 0
vertex 0 0 0
endloop
endfacet
facet normal -4.898425415289509e-16 -1 0
outer loop
vertex 1 -4.898425415289509e-16 1
vertex 0 0 1
vertex 0 0 0
endloop
endfacet
facet normal -4.898425415289509e-16 -1 0
outer loop
vertex 1 -4.898425415289509e-16 1
vertex 0 0 0
vertex 1 -4.898425415289509e-16 0
endloop
endfacet
facet normal 0.9961946980917455 0.08715574274765814 0
outer loop
vertex 0.9848077530122079 0.1736481776669314 1
vertex 1 -4.898425415289509e-16 1
vertex 1 -4.898425415289509e-16 0
endloop
endfacet
facet normal 0.9961946980917455 0.08715574274765814 0
outer loop
vertex 0.9848077530122079 0.1736481776669314 1
vertex 1 -4.898425415289509e-16 0
vertex 0.9848077530122079 0.1736481776669314 0
endloop
endfacet
facet normal 0.9659258262890682 0.2588190451025212 0
outer loop
vertex 0.9396926207859086 0.3420201433256679 1
vertex 0.9848077530122079 0.1736481776669314 1
vertex 0.9848077530122079 0.1736481776669314 0
endloop
endfacet
facet normal 0.9659258262890682 0.2588190451025212 0
outer loop
vertex 0.9396926207859086 0.3420201433256679 1
vertex 0.9848077530122079 0.1736481776669314 0
vertex 0.9396926207859086 0.3420201433256679 0
endloop
endfacet
facet normal 0.9063077870366504 0.4226182617406985 0
outer loop
vertex 0.8660254037844392 0.49999999999999906 1
vertex 0.9396926207859086 0.3420201433256679 1
vertex 0.9396926207859086 0.3420201433256679 0
endloop
endfacet
facet normal 0.9063077870366504 0.4226182617406985 0
outer loop
vertex 0.8660254037844392 0.49999999999999906 1
vertex 0.9396926207859086 0.3420201433256679 0
vertex 0.8660254037844392 0.49999999999999906 0
endloop
endfacet
facet normal 0.819152044288992 0.5735764363510459 0
outer loop
vertex 0.7660444431189777 0.6427876096865397 1
vertex 0.8660254037844392 0.49999999999999906 1
vertex 0.8660254037844392 0.49999999999999906 0
endloop
endfacet
facet normal 0.819152044288992 0.5735764363510459 0
outer loop
vertex 0.7660444431189777 0.6427876096865397 1
vertex 0.8660254037844392 0.49999999999999906 0
vertex 0.7660444431189777 0.6427876096865397 0
endloop
endfacet
facet normal 0.7071067811865475 0.7071067811865475 0
outer loop
vertex 0.6427876096865391 0.7660444431189782 1
vertex 0.7660444431189777 0.6427876096865397 1
vertex 0.7660444431189777 0.6427876096865397 0
endloop
endfacet
facet normal 0.7071067811865475 0.7071067811865475 0
outer loop
vertex 0.6427876096865391 0.7660444431189782 1
vertex 0.7660444431189777 0.6427876096865397 0
vertex 0.6427876096865391 0.7660444431189782 0
endloop
endfacet
endsolid csg.js
